<?xml version="1.0" encoding="UTF-8" standalone="no"?>
<svg
   xmlns:dc="http://purl.org/dc/elements/1.1/"
   xmlns:cc="http://creativecommons.org/ns#"
   xmlns:rdf="http://www.w3.org/1999/02/22-rdf-syntax-ns#"
   xmlns:svg="http://www.w3.org/2000/svg"
   xmlns="http://www.w3.org/2000/svg"
   id="svg8"
   version="1.1"
   viewBox="0 0 317.49998 58.208335"
   height="220"
   width="1200">
  <defs
     id="defs2" />
  <metadata
     id="metadata5">
    <rdf:RDF>
      <cc:Work
         rdf:about="">
        <dc:format>image/svg+xml</dc:format>
        <dc:type
           rdf:resource="http://purl.org/dc/dcmitype/StillImage" />
        <dc:title></dc:title>
      </cc:Work>
    </rdf:RDF>
  </metadata>
  <g
     id="layer1"
     style="display:inline">
    <g
       id="g1309"
       style="display:inline;fill:#3a115f;fill-opacity:1;stroke:none"
       transform="matrix(2.0000001,0,0,2.0000001,58.208333,-7.9375012)">
      <path
         style="display:inline;fill:#3a115f;fill-opacity:1;stroke:none;stroke-width:0.264583px;stroke-linecap:butt;stroke-linejoin:miter;stroke-opacity:1"
         d="M 3.96875,6.6145835 5.2916669,5.2916669 H 7.9375002 V 6.6145835 H 9.2604168 V 7.9375002 H 10.583333 V 9.2604168 H 11.90625 L 15.875,5.2916669 h 2.645834 V 23.8125 l -1.322917,1.322917 H 14.552083 V 11.90625 L 11.90625,14.552083 H 9.2604168 V 13.229167 H 7.9375002 V 23.8125 L 6.6145835,25.135417 H 3.96875 Z"
         id="path1212" />
      <path
         id="path1207"
         style="display:inline;fill:#3a115f;fill-opacity:1;stroke:none;stroke-width:0.999999px;stroke-linecap:butt;stroke-linejoin:miter;stroke-opacity:1"
         d="M 90,40 75,55 v 30 h 5 v 5 h 5 v 5 h 10 l 10,-10 v 10 h 10 l 5,-5 V 40 h -10 l -5,5 v -5 z m 5,15 h 5 v 5 h 5 V 70 L 95,80 V 75 H 90 V 60 Z"
         transform="scale(0.26458333)" />
      <path
         id="path1202"
         style="display:inline;fill:#3a115f;fill-opacity:1;stroke:none;stroke-width:0.264583px;stroke-linecap:butt;stroke-linejoin:miter;stroke-opacity:1"
         d="m 34.395834,10.583334 -1.322916,1.322917 -4e-6,19.843748 h 2.645833 l 1.322917,-1.322916 4e-6,-5.291666 h 3.96875 l 3.96875,-3.96875 v -7.9375 h -1.322917 v -1.322916 h -1.322917 v -1.322917 h -3.96875 l -1.322916,1.322917 v -1.322917 z m 3.96875,3.96875 h 1.322917 v 1.322917 h 1.322917 v 3.96875 l -1.322917,1.322916 h -1.322917 v -1.322916 h -1.322916 v -3.96875 z" />
      <path
         style="display:inline;fill:#3a115f;fill-opacity:1;stroke:none;stroke-width:0.264583px;stroke-linecap:butt;stroke-linejoin:miter;stroke-opacity:1"
         d="m 87.312499,11.90625 1.322917,-1.322917 h 2.645833 v 2.645834 l 2.645833,-2.645834 h 3.96875 v 2.645834 l -1.322917,1.322916 h -2.645833 l -2.645833,2.645833 V 23.8125 l -1.322916,1.322917 H 87.3125 Z"
         id="path1200" />
      <path
         style="display:inline;fill:#3a115f;fill-opacity:1;stroke:none;stroke-width:0.264583px;stroke-linecap:butt;stroke-linejoin:miter;stroke-opacity:1"
         d="m 76.729166,11.90625 1.322916,-1.322917 h 1.322917 V 9.2604166 l 1.322917,-1.3229167 h 2.645833 v 2.6458331 h 2.645833 v 2.645834 l -1.322916,1.322916 h -1.322917 v 6.614583 h 2.645833 V 23.8125 l -1.322916,1.322916 h -3.96875 V 23.8125 h -1.322917 v -9.260417 h -2.645833 z"
         id="path1198" />
      <path
         style="display:inline;fill:#3a115f;fill-opacity:1;stroke:none;stroke-width:0.264583px;stroke-linecap:butt;stroke-linejoin:miter;stroke-opacity:1"
         d="m 71.437499,14.552083 1.322917,-1.322916 h 2.645833 v 6.614583 h 1.322917 v 1.322916 h 1.322916 V 23.8125 l -1.322916,1.322916 H 74.083332 V 23.8125 h -1.322916 v -1.322917 h -1.322917 z"
         id="path1196" />
      <path
         style="display:inline;fill:#3a115f;fill-opacity:1;stroke:none;stroke-width:0.264583px;stroke-linecap:butt;stroke-linejoin:miter;stroke-opacity:1"
         d="m 71.437499,9.2604166 1.322917,-1.3229167 h 2.645833 v 2.6458331 l -1.322917,1.322917 h -2.645833 z"
         id="path1194" />
      <path
         id="path1189"
         style="display:inline;fill:#3a115f;fill-opacity:1;stroke:none;stroke-width:0.999999px;stroke-linecap:butt;stroke-linejoin:miter;stroke-opacity:1"
         d="m 255,20 -5,5 v 15 h -15 l -15,15 v 30 h 5 v 5 h 5 v 5 h 10 l 5,-5 h 5 v 5 h 10 l 5,-5 V 20 Z M 235,60.000001 240,55 h 10 v 15 l -5,5 -5,5 v -5 h -5 z"
         transform="scale(0.26458333)" />
      <path
         style="display:inline;fill:#3a115f;fill-opacity:1;stroke:none;stroke-width:0.264583px;stroke-linecap:butt;stroke-linejoin:miter;stroke-opacity:1"
         d="m 46.302083,6.6145833 1.322916,-1.3229167 h 10.583334 v 2.6458333 l -1.322917,1.3229167 h -6.614583 v 3.9687504 h 5.291666 V 15.875 l -1.322916,1.322916 h -3.96875 v 3.96875 h 7.9375 V 23.8125 l -1.322917,1.322916 H 46.302083 Z"
         id="path1187" />
    </g>
    <path
       style="display:inline;fill:#005dfe;fill-opacity:1;stroke:none;stroke-width:0.529166px;stroke-linecap:butt;stroke-linejoin:miter;stroke-opacity:1"
       d="M 68.791667,2.6458322 V 39.687496 h 5.291666 V 13.229161 h 2.645834 v 2.645834 h 2.645832 v 2.645834 h 5.291669 V 15.874995 H 87.3125 v -2.645834 h 2.645834 V 39.687496 H 95.25 V 2.6458322 H 89.958334 V 5.2916627 H 87.3125 V 7.9374962 H 84.666668 V 10.583329 H 79.374999 V 7.9374962 H 76.729167 V 5.2916627 H 74.083333 V 2.6458322 Z"
       id="path869" />
    <path
       id="path871"
       style="display:inline;fill:#005dfe;fill-opacity:1;stroke:none;stroke-width:0.529166px;stroke-linecap:butt;stroke-linejoin:miter;stroke-opacity:1"
       d="m 105.83333,13.229161 v 2.645834 h -2.64583 v 2.645834 h -2.64583 V 34.39583 h 2.64583 v 2.645832 h 2.64583 v 2.645834 h 5.29167 v -2.645834 h 2.64583 V 34.39583 h 2.64583 v 5.291666 h 5.29167 V 13.229161 h -5.29167 v 2.645834 h -2.64583 v -2.645834 z m 2.64583,5.291668 h 5.29167 v 2.645832 h 2.64583 v 7.9375 h -2.64583 v 2.645834 H 111.125 v 2.645835 h -2.64584 v -2.645835 h -2.64583 V 21.166661 h 2.64583 z" />
    <path
       id="path876"
       style="display:inline;fill:#005dfe;fill-opacity:1;stroke:none;stroke-width:0.529166px;stroke-linecap:butt;stroke-linejoin:miter;stroke-opacity:1"
       d="m 126.99999,13.229161 -1e-5,39.687501 h 5.29167 v -15.875 h 2.64584 v 2.645834 h 7.9375 v -2.645834 h 2.64583 v -2.645834 h 2.64583 V 18.520829 h -2.64583 v -2.645834 h -2.64583 v -2.645834 h -7.9375 v 2.645834 h -2.64584 v -2.645834 z m 7.9375,5.291668 h 5.29166 v 2.645832 h 2.64584 v 10.583334 h -2.64584 v 2.645833 h -5.29166 v -2.645833 h -2.64584 V 21.166661 h 2.64584 z" />
    <path
       style="display:inline;fill:#9100ff;fill-opacity:1;stroke:none;stroke-width:0.529166px;stroke-linecap:butt;stroke-linejoin:miter;stroke-opacity:1"
       d="M 174.625,2.6458322 H 153.45833 V 39.687496 H 174.625 V 34.395828 H 158.74999 V 23.812495 h 10.58335 V 18.520829 H 158.74999 V 7.9374962 H 174.625 Z"
       id="path881" />
    <path
       id="path883"
       style="display:inline;fill:#9100ff;fill-opacity:1;stroke:none;stroke-width:0.529166px;stroke-linecap:butt;stroke-linejoin:miter;stroke-opacity:1"
       d="M 193.14584,2.6458322 V 13.229161 H 182.5625 v 2.645834 h -2.64582 v 2.645834 h -2.64584 v 15.874999 h 2.64584 v 2.645834 h 2.64582 v 2.645834 h 5.29168 V 37.041662 H 190.5 v -2.645834 h 2.64584 v 5.291668 h 5.29166 V 2.6458322 Z m -7.9375,15.8749968 h 7.9375 V 29.104161 H 190.5 v 2.645834 h -2.64582 v 2.645833 h -2.64584 V 31.749995 H 182.5625 V 21.166661 h 2.64584 z" />
    <path
       style="display:inline;fill:#9100ff;fill-opacity:1;stroke:none;stroke-width:0.529166px;stroke-linecap:butt;stroke-linejoin:miter;stroke-opacity:1"
       d="m 203.72918,7.9374962 v 5.2916648 h 5.29166 V 7.9374962 Z"
       id="path888" />
    <path
       style="display:inline;fill:#9100ff;fill-opacity:1;stroke:none;stroke-width:0.529166px;stroke-linecap:butt;stroke-linejoin:miter;stroke-opacity:1"
       d="m 203.72918,18.520829 v 15.874999 h 2.64582 v 2.645834 h 2.64584 v 2.645834 h 5.29166 v -5.291668 h -2.64582 v -2.645833 h -2.64584 V 18.520829 Z"
       id="path890" />
    <path
       style="display:inline;fill:#9100ff;fill-opacity:1;stroke:none;stroke-width:0.529166px;stroke-linecap:butt;stroke-linejoin:miter;stroke-opacity:1"
       d="m 214.3125,13.229161 h 5.29168 V 7.9374962 h 5.29166 v 5.2916648 h 5.29166 v 5.291668 h -5.29166 v 15.874999 h 5.29166 v 5.291668 H 222.25 v -2.645834 h -2.64582 V 18.520829 h -5.29168 z"
       id="path892" />
    <path
       style="display:inline;fill:#d813ec;fill-opacity:1;stroke:none;stroke-width:0.529166px;stroke-linecap:butt;stroke-linejoin:miter;stroke-opacity:1"
       d="m 235.47918,13.229161 h 5.29166 v 5.291668 h 2.64584 v -2.645834 h 2.64582 V 13.229161 H 254 v 5.291668 h -7.9375 v 2.645832 h -2.64582 v 2.645834 h -2.64584 v 15.875001 h -5.29166 z"
       id="path894" />
  </g>
</svg>
